<svg width="32" height="37" viewBox="0 0 32 37" fill="none" xmlns="http://www.w3.org/2000/svg">
<g clip-path="url(#clip0_8_649)">
<path d="M0.671474 16.8668C-0.221383 17.7701 -0.221383 19.2371 0.671474 20.1404L12.1 31.7029C12.9929 32.6063 14.4429 32.6063 15.3358 31.7029C16.2286 30.7996 16.2286 29.3326 15.3358 28.4293L7.80005 20.8125H29.7143C30.9786 20.8125 32 19.7791 32 18.5C32 17.2209 30.9786 16.1875 29.7143 16.1875H7.80719L15.3286 8.5707C16.2215 7.66738 16.2215 6.20039 15.3286 5.29707C14.4358 4.39375 12.9858 4.39375 12.0929 5.29707L0.664331 16.8596L0.671474 16.8668Z" fill="#F2F2F2"/>
</g>
<defs>
<clipPath id="clip0_8_649">
<rect width="32" height="37" fill="white"/>
</clipPath>
</defs>
</svg>
