<svg width="219" height="219" viewBox="0 0 219 219" fill="none" xmlns="http://www.w3.org/2000/svg">
<g clip-path="url(#clip0_93_13)">
<path d="M147.399 71.2358C138.758 62.5849 129.464 54.6124 119.598 47.3892C126.345 43.3075 133.428 39.8071 140.768 36.9258C142.715 36.1958 144.54 35.6483 146.365 35.1008C147.846 36.8924 149.753 38.2831 151.912 39.1451C154.07 40.0072 156.411 40.3129 158.718 40.0343C161.026 39.7557 163.226 38.9017 165.118 37.5507C167.009 36.1997 168.531 34.395 169.542 32.3025C173.886 32.6958 177.985 34.4891 181.222 37.4125C188.462 44.6517 188.644 59.2517 181.831 77.4408C184.812 81.395 187.549 85.41 190.043 89.6075C191.077 87.1742 192.172 84.8017 193.024 82.4292C201.967 59.0083 200.811 39.8458 189.8 29.0175C184.291 23.8009 177.116 20.6983 169.542 20.2575C168.279 17.6232 166.219 15.4528 163.654 14.0535C161.089 12.6541 158.149 12.0967 155.25 12.4599C152.351 12.8231 149.639 14.0887 147.499 16.0775C145.359 18.0664 143.898 20.6778 143.323 23.5425C141.072 24.2117 138.822 24.8808 136.449 25.7933C126.729 29.6212 117.416 34.4102 108.648 40.0892C99.8624 34.3371 90.5299 29.4671 80.7866 25.55C57.3657 16.6683 38.2032 17.7633 27.4357 28.7742C17.3374 38.9333 15.6949 55.7842 22.3866 76.5892C20.8593 78.5531 19.8883 80.8917 19.5755 83.3598C19.2627 85.828 19.6194 88.3348 20.6085 90.6177C21.5975 92.9005 23.1824 94.8754 25.197 96.3352C27.2116 97.795 29.5817 98.6861 32.0591 98.915C34.0057 102.626 36.1349 106.337 38.5074 109.987C32.858 118.774 28.1093 128.108 24.3332 137.848C15.3907 161.208 16.5466 180.432 27.5574 191.199C30.9074 194.33 34.852 196.756 39.1573 198.334C43.4626 199.912 48.0409 200.61 52.6207 200.385C62.3382 200.068 71.9196 198.008 80.9082 194.302C90.642 190.462 99.9743 185.674 108.77 180.006C117.484 185.804 126.757 190.715 136.449 194.667C143.574 197.47 151.041 199.312 158.653 200.142C159.989 202.983 162.242 205.292 165.05 206.698C167.857 208.104 171.055 208.525 174.131 207.893C177.206 207.261 179.98 205.613 182.005 203.214C184.031 200.815 185.191 197.804 185.298 194.667C186.914 193.668 188.422 192.506 189.8 191.199C200.811 180.188 201.967 161.208 193.024 137.848C182.532 112.757 167.004 90.0855 147.399 71.2358ZM76.4674 183.047C58.2174 190.043 43.3132 189.922 36.0132 182.561C28.7132 175.2 28.5307 160.539 35.5874 142.167C38.4467 134.828 41.9268 127.746 45.9899 120.997C53.2349 130.827 61.2061 140.099 69.8366 148.737C72.4524 151.353 75.1291 153.908 77.8057 156.342C81.4557 154.476 85.1666 152.347 88.9382 149.954C85.4099 146.791 81.8816 143.871 78.4749 140.16C64.7831 126.706 53.0309 111.412 43.5566 94.7175C45.4592 92.7455 46.738 90.2561 47.233 87.561C47.7279 84.8658 47.417 82.0845 46.3391 79.5651C45.2612 77.0458 43.4643 74.9003 41.1732 73.3971C38.882 71.8939 36.1984 71.0998 33.4582 71.1142C28.8957 55.9058 29.6866 43.8 36.0741 37.4125C38.3238 35.4299 40.9451 33.9141 43.7856 32.9533C46.6262 31.9926 49.6294 31.6059 52.6207 31.8158C60.8296 32.09 68.9245 33.8202 76.5282 36.9258C83.8688 39.8071 90.951 43.3075 97.6982 47.3892C87.8327 54.6124 78.5383 62.5849 69.8974 71.2358C67.2207 73.9125 64.6049 76.7108 62.0499 79.5092C63.8816 83.3633 65.9121 87.1197 68.1332 90.7633C71.4182 87.0525 74.7641 83.4025 78.3532 79.8133C87.7125 70.4642 97.8922 61.9743 108.77 54.4458C119.531 62.0028 129.608 70.4914 138.882 79.8133C148.233 89.171 156.723 99.3509 164.25 110.23C156.704 121.095 148.216 131.273 138.882 140.647C121.181 158.882 99.9422 173.311 76.4674 183.047ZM181.222 182.5L180.249 183.291C178.652 181.937 176.767 180.964 174.738 180.445C172.709 179.927 170.588 179.877 168.537 180.299C166.486 180.721 164.557 181.604 162.898 182.881C161.238 184.158 159.891 185.796 158.957 187.671C152.704 186.868 146.574 185.294 140.707 182.987C133.356 180.129 126.272 176.628 119.537 172.523C129.403 165.3 138.697 157.328 147.338 148.677C156.003 140.07 163.976 130.795 171.185 120.937C175.266 127.684 178.766 134.766 181.648 142.107C188.583 160.539 188.583 175.261 181.222 182.5Z" fill="white"/>
<g clip-path="url(#clip1_93_13)">
<path d="M93.22 88.4115L111.976 87.1715C115.959 86.9082 119.732 88.3819 122.482 91.2753L135.433 104.9C138.25 107.864 136.064 113.46 131.984 113.73L113.228 114.97C109.244 115.233 105.472 113.759 102.721 110.866L93.4645 101.127" stroke="white" stroke-width="6" stroke-linecap="round"/>
<path d="M84.0785 107.679L86.7275 100.897C87.9113 97.8665 88.5033 96.3512 89.7495 95.4699C90.9957 94.5887 92.6218 94.5358 95.8739 94.4301L98.8491 94.3333" stroke="white" stroke-width="4" stroke-linecap="round" stroke-linejoin="round"/>
<path d="M126.41 114.657L121.667 126.8C120.734 129.188 118.668 130.958 116.127 131.299C111.895 131.867 105.289 132.349 101.034 130.686C96.7786 129.024 92.2478 124.193 89.5214 120.907C87.8841 118.934 87.5646 116.232 88.4974 113.844L93.2407 101.7" stroke="white" stroke-width="6" stroke-linecap="round"/>
</g>
</g>
<defs>
<clipPath id="clip0_93_13">
<rect width="219" height="219" fill="white"/>
</clipPath>
<clipPath id="clip1_93_13">
<rect width="61.0462" height="61.0462" fill="white" transform="translate(92.0371 69.8265) rotate(21.3359)"/>
</clipPath>
</defs>
</svg>
