<svg width="54" height="94" viewBox="0 0 54 94" fill="none" xmlns="http://www.w3.org/2000/svg">
<rect y="0.97934" width="2" height="10" rx="1" transform="rotate(-29.3184 0 0.97934)" fill="#F2F2F2"/>
<rect x="5.87595" y="11.4423" width="2" height="10" rx="1" transform="rotate(-29.3184 5.87595 11.4423)" fill="#F2F2F2"/>
<rect x="11.7519" y="21.9052" width="2" height="10" rx="1" transform="rotate(-29.3184 11.7519 21.9052)" fill="#F2F2F2"/>
<rect x="17.6279" y="32.3682" width="2" height="10" rx="1" transform="rotate(-29.3184 17.6279 32.3682)" fill="#F2F2F2"/>
<rect x="23.5038" y="42.8311" width="2" height="10" rx="1" transform="rotate(-29.3184 23.5038 42.8311)" fill="#F2F2F2"/>
<rect x="29.3798" y="53.2941" width="2" height="10" rx="1" transform="rotate(-29.3184 29.3798 53.2941)" fill="#F2F2F2"/>
<rect x="35.2557" y="63.757" width="2" height="10" rx="1" transform="rotate(-29.3184 35.2557 63.757)" fill="#F2F2F2"/>
<rect x="41.1317" y="74.2199" width="2" height="10" rx="1" transform="rotate(-29.3184 41.1317 74.2199)" fill="#F2F2F2"/>
<rect x="47.0076" y="84.6829" width="2" height="10" rx="1" transform="rotate(-29.3184 47.0076 84.6829)" fill="#F2F2F2"/>
</svg>
