<svg width="34" height="102" viewBox="0 0 34 102" fill="none" xmlns="http://www.w3.org/2000/svg">
<rect x="32.094" width="2" height="10" rx="1" transform="rotate(17.6243 32.094 0)" fill="#F2F2F2"/>
<rect x="28.4607" y="11.4367" width="2" height="10" rx="1" transform="rotate(17.6243 28.4607 11.4367)" fill="#F2F2F2"/>
<rect x="24.8274" y="22.8735" width="2" height="10" rx="1" transform="rotate(17.6243 24.8274 22.8735)" fill="#F2F2F2"/>
<rect x="21.1942" y="34.3102" width="2" height="10" rx="1" transform="rotate(17.6243 21.1942 34.3102)" fill="#F2F2F2"/>
<rect x="17.5609" y="45.747" width="2" height="10" rx="1" transform="rotate(17.6243 17.5609 45.747)" fill="#F2F2F2"/>
<rect x="13.9276" y="57.1837" width="2" height="10" rx="1" transform="rotate(17.6243 13.9276 57.1837)" fill="#F2F2F2"/>
<rect x="10.2943" y="68.6205" width="2" height="10" rx="1" transform="rotate(17.6243 10.2943 68.6205)" fill="#F2F2F2"/>
<rect x="6.66103" y="80.0573" width="2" height="10" rx="1" transform="rotate(17.6243 6.66103 80.0573)" fill="#F2F2F2"/>
<rect x="3.02774" y="91.494" width="2" height="10" rx="1" transform="rotate(17.6243 3.02774 91.494)" fill="#F2F2F2"/>
</svg>
