<svg width="70" height="64" viewBox="0 0 70 64" fill="none" xmlns="http://www.w3.org/2000/svg">
<g clip-path="url(#clip0_2_107)">
<path d="M13.7879 64H56.2121C57.9693 64 59.3939 62.6975 59.3939 61.0909V28.1212C59.3939 26.5146 57.9693 25.2121 56.2121 25.2121H53.0303V16.4848C53.0303 7.3951 44.9419 0 35 0C25.0581 0 16.9697 7.3951 16.9697 16.4848V25.2121H13.7879C12.0307 25.2121 10.6061 26.5146 10.6061 28.1212V61.0909C10.6061 62.6975 12.0307 64 13.7879 64ZM38.1818 45.573V49.4545C38.1818 51.0611 36.7572 52.3636 35 52.3636C33.2428 52.3636 31.8182 51.0611 31.8182 49.4545V45.573C30.531 44.6877 29.697 43.2799 29.697 41.697C29.697 39.0235 32.0759 36.8485 35 36.8485C37.9241 36.8485 40.303 39.0235 40.303 41.697C40.303 43.2799 39.469 44.6877 38.1818 45.573ZM23.3333 16.4848C23.3333 10.6032 28.567 5.81818 35 5.81818C41.433 5.81818 46.6667 10.6032 46.6667 16.4848V25.2121H23.3333V16.4848Z" fill="#F2F2F2" fill-opacity="0.76"/>
</g>
<defs>
<clipPath id="clip0_2_107">
<rect width="70" height="64" fill="white"/>
</clipPath>
</defs>
</svg>
