<svg width="265" height="265" viewBox="0 0 265 265" fill="none" xmlns="http://www.w3.org/2000/svg">
<circle cx="133.5" cy="132.5" r="70.5" fill="#426A9E"/>
<circle cx="133.5" cy="132.5" r="63.1343" fill="#75ADF5"/>
<circle cx="133.5" cy="132.5" r="21.5" fill="#F5F5F5"/>
<path d="M132.5 0L135.711 117.615C135.726 118.163 135.831 118.706 136.022 119.22L140.495 131.258C141.709 134.525 139.293 138 135.808 138H129.474C125.913 138 123.493 134.383 124.852 131.092L129.717 119.311C129.954 118.737 130.082 118.125 130.094 117.505L132.5 0Z" fill="#F5F5F5"/>
<path d="M132.5 265L129.289 147.385C129.274 146.837 129.169 146.294 128.978 145.78L124.505 133.742C123.291 130.475 125.707 127 129.192 127L135.526 127C139.087 127 141.507 130.617 140.148 133.908L135.283 145.689C135.046 146.263 134.918 146.875 134.906 147.495L132.5 265Z" fill="#F5F5F5"/>
<path d="M265 132.5L147.385 135.711C146.837 135.726 146.294 135.831 145.78 136.022L133.742 140.495C130.475 141.709 127 139.293 127 135.808L127 129.474C127 125.913 130.617 123.493 133.908 124.852L145.689 129.717C146.263 129.954 146.875 130.082 147.495 130.094L265 132.5Z" fill="#F5F5F5"/>
<path d="M-4.58969e-07 132.5L116.751 129.29C117.303 129.275 117.849 129.168 118.366 128.974L130.247 124.527C133.516 123.304 137 125.72 137 129.21L137 135.505C137 139.072 133.373 141.491 130.08 140.122L118.457 135.288C117.881 135.048 117.264 134.918 116.64 134.905L-4.58969e-07 132.5Z" fill="#F5F5F5"/>
</svg>
