<svg width="141" height="141" viewBox="0 0 141 141" fill="none" xmlns="http://www.w3.org/2000/svg">
<circle cx="70.5" cy="70.5" r="70" fill="#75B9F5" stroke="#75B8F5"/>
<circle cx="70.5" cy="70.5" r="62.6343" fill="#2D87D0" stroke="#75B8F5"/>
<path d="M20.078 104.182C25.2174 105.681 29.9906 95.6562 29.9906 91.6262C29.9906 86.0387 31.3123 80.089 31.3123 74.4443C31.3123 71.9084 33.1513 68.9545 33.2949 66.5141C33.4391 64.0619 35.7061 61.8207 37.9207 60.7134C40.0109 59.6684 43.7671 57.9744 45.9977 59.7589C47.6532 61.0832 49.2834 63.3126 50.8072 64.5316C54.3963 67.4029 55.1027 74.542 55.1027 78.7397C55.1027 84.8316 56.7006 89.3281 60.3894 93.9391C63.585 97.9336 70.9212 100.217 75.9192 100.217C78.7852 100.217 82.3892 100.799 85.171 100.18C86.4728 99.8911 89.6074 99.5005 90.6413 98.7486C91.6615 98.0066 93.166 98.0505 93.9455 97.4269C97.6699 94.4474 101.388 90.7798 103.491 86.3394C105.838 81.3856 105.327 75.4411 105.327 69.8184C105.327 68.3677 105.693 66.3097 105.29 64.8988C105.016 63.9414 103.362 62.7925 102.83 61.8883C101.136 59.0079 97.6153 57.5497 94.9001 55.9407C92.2033 54.3426 90.62 51.596 88.1448 50.1399C85.8128 48.7682 82.8334 45.7519 82.2339 43.0542C81.7338 40.8038 80.8606 37.6545 81.5731 35.1608C82.267 32.732 84.8425 32.1479 86.1622 30.4982C88.5309 27.5374 98.0755 27.1992 101.655 28.222C106.883 29.7157 108.202 34.5881 111.274 38.4283C112.811 40.3493 114.879 42.7238 117.552 42.7238C118.984 42.7238 120.416 42.7238 121.848 42.7238C123.362 42.7238 124.171 41.4021 125.813 41.4021" stroke="#75B8F5" stroke-width="3" stroke-linecap="round"/>
<path d="M36.5991 16.951C47.0314 21.3825 54.5393 24.7825 59.8754 35.4546C60.6298 36.9634 61.7111 40.7064 61.7111 42.3935C61.7111 44.3089 61.0793 47.5803 61.8579 49.3323C64.1129 54.406 65.9771 59.726 70.816 63.21C73.1433 64.8857 75.0503 65.9173 77.9017 66.5509C79.4009 66.8841 83.3933 67.9952 84.5101 68.8639C86.5101 70.4194 89.7135 70.7497 92.1098 71.9478C94.4586 73.1222 96.1665 74.8624 98.3878 76.0964C102.251 78.2425 102.676 83.885 104.666 87.3675C107.778 92.8133 112.761 95.5913 118.874 95.5913C121.17 95.5913 122.701 93.8194 124.491 93.6088C126.808 93.3362 129.159 92.2238 130.439 90.3046" stroke="#75B8F5" stroke-width="3" stroke-linecap="round"/>
<path d="M44.5292 126.651C47.7632 128.173 50.6267 125.998 53.267 124.301C56.8819 121.977 61.5946 119.234 63.8404 115.417C64.8825 113.645 67.0572 111.915 68.1726 110.13C69.3022 108.322 70.2613 106.37 71.2933 104.513C75.0966 97.6666 77.3316 85.3793 73.2758 78.0789C69.2648 70.8591 63.8312 64.3312 57.746 58.5841C52.7855 53.8991 46.147 52.9947 40.2704 50.3235C39.1147 49.7982 34.6055 49.1181 33.6252 49.6627C31.3904 50.9043 29.8529 53.34 27.7144 54.4721C25.0006 55.9088 23.5863 64.4297 26.6864 66.3673C27.994 67.1845 30.3464 71.0694 31.1654 72.4617C32.0988 74.0485 34.9876 73.5864 35.9382 74.7747C37.4883 76.7124 47.1674 76.4309 49.0082 74.9583C53.9245 71.0252 58.1618 67.0979 62.0415 61.925C65.2447 57.654 69.4332 53.9304 71.6237 49.0018C73.7507 44.2161 76.0217 37.1295 74.1202 31.6364C73.2924 29.2451 71.2245 27.6807 70.1552 25.5419C69.4407 24.1131 67.1828 21.3316 65.9698 20.2919C61.2654 16.2595 67.7357 12.7547 68.9803 9.02087" stroke="#75B8F5" stroke-width="3" stroke-linecap="round"/>
<path d="M10.1653 49.9931C19.4098 49.9931 30.315 50.1205 37.5903 55.9407C39.9334 57.8151 43.171 61.8892 43.8316 64.862C44.2629 66.803 44.9639 68.629 45.704 70.4792C46.3747 72.156 46.0193 74.529 47.0257 75.9128C48.2019 77.5301 47.2836 84.3403 47.1725 86.3394C46.7888 93.2468 44.5292 99.4377 44.5292 106.532C44.5292 115.451 54.2323 120.042 62.0048 120.042C70.0281 120.042 74.6056 115.431 81.5363 111.965C84.7766 110.345 87.8072 108.297 91.1185 106.826C93.494 105.77 99.6395 102.935 100.701 100.548C101.18 99.4694 103.369 97.2368 104.299 96.2521C105.758 94.7069 107.228 93.2047 108.631 91.6262C111.164 88.7761 112.774 85.0282 114.432 81.7135C118.01 74.557 119.204 67.1219 119.204 59.098C119.204 51.2072 106.339 47.7441 100.334 46.6522C91.374 45.0231 83.0183 40.5851 74.7811 37.2902C69.6801 35.2498 63.691 27.4806 68.0258 21.9073C71.876 16.9569 75.8126 12.3251 82.858 12.3251C86.2045 12.3251 88.4999 12.3191 91.449 13.7936C94.1795 15.1589 96.087 17.471 98.7182 18.7866C103.323 21.0891 104.005 30.316 104.005 35.1609C104.005 39.4627 107.555 48.7393 112.596 49.3322C115.766 49.7052 118.583 51.3148 121.848 51.3148C125.726 51.3148 127.9 50.8043 131.1 48.6714" stroke="#75B8F5" stroke-width="3" stroke-linecap="round"/>
<path d="M105.327 127.312C105.327 120.913 104.03 114.702 102.647 108.478C102.024 105.675 99.0295 103.018 98.7183 100.217C98.4784 98.0583 96.0811 95.7345 95.0836 93.9391C93.8122 91.6506 91.2362 89.6604 90.2007 87.3307C88.3728 83.2178 83.9847 80.9564 82.0504 77.0877C80.0047 72.9964 78.2467 68.3906 75.9192 64.2012C74.7891 62.167 76.3638 59.3367 75.4419 57.2624C74.4599 55.0528 74.9279 52.045 74.9279 49.626C74.9279 47.3253 74.9279 45.0246 74.9279 42.7238C74.9279 39.2759 72.1285 37.6482 69.9349 35.4546C66.1011 31.6207 61.2336 28.1022 59.0677 23.229C58.0941 21.0384 56.4286 19.1497 55.6167 16.8041C55.3158 15.935 52.8611 9.53902 51.7985 11.6643" stroke="#75B8F5" stroke-width="3" stroke-linecap="round"/>
<path d="M19.8565 24.9843C39.0181 31.2667 62.1165 35.0189 72.037 53.7578C76.7032 62.5716 77.4035 73.0231 77.4035 82.988C77.4035 87.4152 78.4311 91.3654 78.4311 95.8904C78.4311 100.164 77.8479 104.911 79.9726 108.736C81.7281 111.896 79.4831 117.501 81.7424 120.325C84.0822 123.25 85.6245 128.935 85.6245 132.885" stroke="#75B8F5" stroke-width="3" stroke-linecap="round"/>
<path d="M11.2398 85.6569C16.0588 87.9934 20.5543 82.1829 24.1221 79.6062C29.1122 76.0022 32.5396 70.3834 35.2477 64.9672C38.1093 59.2441 38.1944 52.4925 35.4429 46.8365C33.3682 42.5719 30.8091 37.9065 25.8571 36.4917C24.3579 36.0633 22.9751 36.0796 21.3895 36.0796C20.9657 36.0796 19.4228 36.3178 19.134 35.9928C18.5038 35.2839 20.7952 35.2989 20.9991 35.2989" stroke="#75B8F5" stroke-width="3" stroke-linecap="round"/>
<path d="M117.421 112.983C116.366 112.35 115.248 108.969 115.101 107.713C114.948 106.413 114.771 105.137 114.667 103.831C114.466 101.325 113.978 99.0086 114.689 96.5006C115.849 92.4054 117.972 88.385 120.934 85.2666C125.011 80.9754 129.819 76.8454 131.952 71.2999C132.449 70.0075 135.228 67.1089 133.73 65.4443C131.516 62.9847 127.788 62.2347 125.532 59.9791C123.839 58.2858 120.951 58.1305 119.286 56.4657C118.19 55.3691 115.317 54.0891 113.908 53.3427C111.406 52.0183 108.426 51.2615 106.014 49.7426C102.254 47.3754 97.957 45.4264 93.9988 43.4099C91.154 41.9607 87.5262 40.3709 85.0202 38.4218C83.8282 37.4947 82.4246 36.3292 81.1165 35.6025C78.1949 33.9794 73.8787 31.8586 71.921 29.1396C69.7808 26.167 73.1264 24.2778 75.2609 22.7202C77.9575 20.7524 80.3719 18.7282 83.4587 17.4285C85.271 16.6654 87.1201 15.5933 89.0107 14.9127C90.4874 14.3811 92.0955 13.0476 93.6084 13.0476" stroke="#75B8F5" stroke-width="3" stroke-linecap="round"/>
</svg>
