<svg width="159" height="159" viewBox="0 0 159 159" fill="none" xmlns="http://www.w3.org/2000/svg">
<circle cx="79.5" cy="79.5" r="79.5" fill="#477BFF"/>
<circle cx="79" cy="80" r="69" fill="#3758FA"/>
<circle cx="79" cy="80" r="58" fill="#1B4AE2"/>
<path d="M43.5597 35.3396C42.4669 39.8475 46.3555 41.3904 50.1147 41.3904C54.389 41.3904 56.5613 39.3063 59.1908 36.3481C60.9273 34.3946 63.8804 30.9356 66.2501 29.681C67.4274 29.0577 68.2513 27.7887 69.3875 26.8798C70.5071 25.984 73.1864 27.1463 74.3177 27.272C76.7297 27.54 80.7342 32.9847 80.8727 35.3396C81.0566 38.466 82.3583 42.9166 84.5144 45.3122C90.0224 51.4322 98.0828 48.6074 103.283 43.4073C105.465 41.2251 108.35 37.8608 111.631 37.8608C115.012 37.8608 118.765 41.5065 119.81 44.5278C120.945 47.8055 120.904 51.4629 120.707 55.0046C120.509 58.5574 117.57 61.5522 117.177 65.0892C116.985 66.8174 116.057 67.7304 116.169 69.6272C116.244 70.9101 118.752 72.0672 119.698 72.5406C122.91 74.1465 127.042 72.4308 130.287 74.0532C133.972 75.8957 135.834 77.4917 135.834 81.7287C135.834 85.3379 134.72 87.7459 132.92 90.8049C131.019 94.0367 126.452 94.8242 123.732 97.1357C122.33 98.3275 119.901 98.278 118.186 98.3683C116.532 98.4553 114.336 99.5145 112.639 98.7605C108.607 96.9683 103.511 95.7859 99.5292 97.9761C95.3688 100.264 93.7889 103.854 91.8537 107.725C88.2944 114.843 88.3204 123.7 84.7945 131.143C82.8414 135.266 74.6589 134.169 70.9002 134.169C68.2049 134.169 66.3449 133.975 63.841 133.048C61.3826 132.138 56.6725 130.038 55.2691 127.614C52.1361 122.202 46.5851 118.995 46.5851 112.263C46.5851 109.067 46.8146 106.988 48.602 104.307C49.5782 102.843 51.9457 100.134 52.1316 98.3683C52.4141 95.6846 53.3524 93.9311 51.1232 91.8133C47.7657 88.6237 42.6294 86.4179 38.5174 84.3619C34.1173 82.1619 23.8948 82.2062 23.8948 75.678C23.8948 71.7696 22.1783 66.1779 23.7827 62.568C25.9355 57.7244 28.9747 55.8801 33.4751 53.3798C37.5103 51.1381 39.6579 46.0935 36.6126 42.2868C34.4771 39.6174 43.0765 38.365 44.5682 38.365" stroke="#3758FA" stroke-width="3" stroke-linecap="round"/>
<path d="M57.6782 27.7762C58.7283 30.7078 59.3039 35.8768 61.712 38.1129C62.4656 38.8128 64.2495 39.8083 64.7374 40.6621C66.0811 43.0137 70.43 43.6757 72.805 43.9396C73.9822 44.0704 75.1713 44.3833 76.1105 44.92C77.4606 45.6915 78.8972 45.2677 80.3685 45.6764C82.5601 46.2852 81.617 46.4794 83.1417 47.6653C83.9596 48.3014 84.007 49.4444 84.6544 49.9623C85.8626 50.9289 85.4108 56.4385 85.4108 57.918C85.4108 61.056 85.0734 64.1034 84.9065 67.1061C84.8257 68.5613 82.7813 71.5285 81.7691 72.5406C79.4668 74.8429 76.4764 76.7032 73.3093 77.5829C68.8513 78.8212 67.1656 79.0794 63.4768 75.9582C60.2402 73.2195 56.7355 70.575 53.4202 67.8625C51.076 65.9445 49.2912 63.7484 46.8372 61.8397C44.9525 60.3739 41.1244 59.5427 38.7976 59.5427C34.2331 59.5427 26.8175 58.1244 23.5026 62.1759C20.3055 66.0835 20.3652 72.35 20.3652 77.1907C20.3652 86.8377 24.9258 100.89 36.2484 100.89C38.5174 100.89 40.7865 100.89 43.0555 100.89C45.407 100.89 46.34 104.209 47.2014 105.932C49.0839 109.697 48.602 115.308 48.602 119.546C48.602 121.815 48.602 124.084 48.602 126.353C48.602 129.042 54.8878 129.881 56.6977 130.107C64.2301 131.048 69.0695 123.751 71.8246 117.781C73.2824 114.623 77.4677 110.322 80.8727 109.349C84.5264 108.305 90.6478 107.33 94.2068 108.957C97.0059 110.237 99.2088 113.231 100.145 116.297C100.74 118.242 102.513 122.406 104.684 123.188C107.048 124.039 108.359 125.983 110.902 124.364C113.402 122.774 114.557 121.816 115.945 119.042C118.729 113.474 119.698 106.791 119.698 100.637C119.698 98.2745 120.116 95.9731 120.203 93.7182C120.326 90.5143 117.269 87.8718 115.16 85.7626C111.482 82.0838 113.314 75.9935 117.569 73.1569C119.638 71.7779 122.146 70.8532 123.732 68.8709C124.553 67.8446 126.31 66.2786 126.73 64.8091C126.986 63.9131 127.354 62.5322 128.046 61.8397C128.718 61.1682 128.437 60.0146 129.027 59.5427C131.712 57.3945 126.559 55.8385 124.993 55.5089C120.663 54.5974 117.277 52.9877 112.639 52.9877C109.007 52.9877 104.587 53.6635 101.042 52.8757C98.3423 52.2757 95.9996 50.3672 95.9996 47.4412C95.9996 44.8081 94.3502 41.5454 93.5905 38.9813C93.0226 37.0646 92.8138 34.6855 92.498 32.7905C92.0873 30.3263 87.5618 26.8256 85.1587 26.2916C80.1161 25.171 73.1756 25.2668 68.267 27.0199C66.2526 27.7393 63.3426 27.272 61.2078 27.272C58.2907 27.272 58.3316 28.631 56.1655 29.9052C54.8183 30.6977 54.8606 33.9897 54.2606 35.3397C53.3699 37.3437 53.6767 39.4464 54.5407 41.3904C55.447 43.4296 57.1739 45.4262 57.1739 47.6933C57.1739 50.6207 56.1663 50.4097 54.3726 52.2034C51.2185 55.3575 43.9845 55.6861 45.8288 61.5876C47.3874 66.5754 52.2494 70.2097 56.6137 72.8768C59.7492 74.7929 62.4266 77.7357 65.1856 80.1881C68.0606 82.7437 69.2239 85.2584 73.3653 85.2584C76.0214 85.2584 77.8035 84.1332 80.1444 83.2415C82.2381 82.4439 83.176 80.2085 85.4108 79.7119C87.169 79.3212 88.4361 78.4959 88.4361 80.7203C88.4361 83.3842 88.7623 86.2022 88.044 88.788C87.2383 91.6883 83.9118 95.2098 81.8812 97.3599C76.8064 102.733 70.3164 104.913 64.1211 100.385C61.4141 98.4071 59.7809 91.095 59.2189 88.0036C58.6369 84.8028 59.1806 80.2254 61.712 77.9471C67.281 72.935 78.2821 77.3668 83.8701 80.4402C87.4835 82.4276 90.8138 82.4875 94.711 83.3535C97.2761 83.9236 100.092 84.2864 101.154 81.3366C102.803 76.7558 102.907 73.4114 100.65 69.1231C100.072 68.0264 99.5842 66.855 98.9129 65.8176C98.3423 64.9358 95.7954 64.4383 94.8791 63.6886C93.7281 62.7469 91.1169 62.6777 89.7247 62.2879C87.3991 61.6368 85.1033 61.0554 82.6655 61.0554C79.541 61.0554 74.419 62.9584 72.3008 65.3413C70.1962 67.709 65.515 66.6136 63.2527 65.3693C59.7038 63.4175 55.4231 58.3028 54.6808 54.2203C53.2932 46.5888 65.0736 43.5962 70.508 42.7911C73.235 42.3871 75.8755 42.3989 78.6317 42.3989C83.1762 42.3989 86.7048 43.7502 91.0133 45.2002C97.48 47.3765 100.614 50.8435 103.563 56.7414C105.429 60.4729 107.426 65.3663 110.426 68.3667C112.658 70.599 116.598 71.0076 118.466 73.409C121.42 77.2074 119.711 79.336 117.401 83.4936C112.881 91.631 106.097 98.9801 96.952 101.366C90.1349 103.144 81.5796 102.906 74.5418 102.906C67.9751 102.906 64.0856 99.5001 60.4794 94.3345C58.027 90.8215 54.7922 87.736 52.5238 84.1379C50.7063 81.2549 49.1934 77.9586 47.0893 75.2859C45.7014 73.5227 43.5908 71.0461 41.1506 71.14C38.8165 71.2297 35.2935 75.0623 34.0914 76.7985C27.3587 86.5236 35.582 93.7934 41.0666 101.198C45.6544 107.391 51.9516 111.983 59.9752 111.983C65.4178 111.983 70.6109 106.725 72.5529 102.094C76.1128 93.6051 76.5914 83.7093 72.0207 75.4819C70.0352 71.908 68.3975 68.3214 65.8579 65.0892C63.9842 62.7045 62.7204 60.3113 62.7204 57.3017C62.7204 49.5809 75.3213 46.9794 80.9848 45.9285C85.9013 45.0162 90.9851 43.9116 95.9996 43.9116C97.5081 43.9116 99.1586 44.0769 100.65 43.7995C103.61 43.2489 106.421 43.1011 104.459 39.3735C103.858 38.2299 102.767 37.6325 102.078 36.6003C101.678 36.0004 101.516 35.2444 100.874 34.8355C99.7003 34.0887 95.7642 34.3833 96.896 33.5749C98.3601 32.5291 102.935 32.5829 104.74 32.3423C106.492 32.1087 107.382 36.2266 108.101 37.3566C109.823 40.063 109.271 44.4399 108.829 47.4692C108.127 52.2887 108.35 56.9165 108.073 61.7557C107.737 67.6353 103.647 73.7597 100.482 78.5073C97.3246 83.2428 93.1825 88.1824 88.9404 91.9254C87.5294 93.1704 84.788 94.7221 84.9065 96.8557C84.9974 98.4904 89.257 100.625 90.4531 101.394C94.2846 103.857 99.5278 105.073 103.955 105.932C107.552 106.629 112.894 108.555 116.561 107.332C118.639 106.64 120.656 102.213 121.323 100.385C123.07 95.5981 123.752 89.7835 123.116 84.6981C122.286 78.0568 117.043 73.6002 111.154 71.3921C106.014 69.4645 100.809 70.5822 95.4673 69.8794C92.9474 69.5478 90.3988 69.4629 87.9039 69.1511C83.2443 68.5686 78.8471 66.3865 74.2057 65.3974C71.7285 64.8694 68.3068 63.9938 65.7178 64.641C62.9137 65.342 60.2638 69.679 59.4149 72.1484C58.1122 75.9381 57.1739 78.9024 57.1739 82.9614C57.1739 86.1123 56.3383 90.6647 57.286 93.7182C59.5047 100.868 69.1694 103.119 75.2702 104.531C81.425 105.956 88.1739 106.436 94.4869 106.436C98.5447 106.436 101.032 105.646 104.571 103.411C109.477 100.312 114.152 97.8358 114.152 91.1971C114.152 83.6127 103.764 78.9371 97.8484 78.0031C92.9525 77.2301 89.5177 78.2075 85.1587 80.4402C80.2901 82.9338 75.458 85.0251 72.0767 89.5724C67.4526 95.791 62.6201 105.421 68.295 112.515C70.6931 115.512 71.6098 119.496 73.5894 122.795C74.7172 124.675 77.0237 126.27 78.8558 127.39C81.568 129.047 84.9287 129.844 88.156 129.519C95.2059 128.807 99.3596 124.353 103.563 119.154C106.604 115.393 102.942 119.207 101.77 120.723C99.8345 123.228 97.5478 124.969 94.4869 125.989C82.8761 129.859 73.9798 122.483 65.6338 115.624C61.2167 111.994 56.7428 108.599 54.1485 103.411C51.7325 98.5786 48.5629 94.1393 47.0893 88.9001C45.1482 81.9982 49.6919 73.8858 53.5323 68.3387C54.4287 67.0438 55.7574 64.9867 55.6612 63.3524C55.5116 60.8079 51.3715 61.2734 51.1232 59.0385C50.277 51.4229 67.8863 51.7577 72.1888 51.0828C76.0221 50.4815 78.8714 48.9539 82.8896 48.9539" stroke="#3758FA" stroke-width="3" stroke-linecap="round"/>
</svg>
