<svg width="399" height="1576" viewBox="0 0 399 1576" fill="none" xmlns="http://www.w3.org/2000/svg">
<circle cx="105.556" cy="263.556" r="4.69137" fill="white"/>
<path d="M104.605 258.859C104.904 257.938 106.207 257.938 106.507 258.859L107.043 260.509C107.177 260.921 107.561 261.2 107.994 261.2H109.728C110.697 261.2 111.1 262.439 110.316 263.009L108.913 264.028C108.562 264.283 108.416 264.734 108.55 265.146L109.086 266.796C109.385 267.717 108.33 268.483 107.547 267.914L106.143 266.895C105.793 266.64 105.318 266.64 104.968 266.895L103.565 267.914C102.781 268.483 101.726 267.717 102.026 266.796L102.562 265.146C102.696 264.734 102.549 264.283 102.198 264.028L100.795 263.009C100.011 262.439 100.414 261.2 101.383 261.2H103.117C103.551 261.2 103.935 260.921 104.069 260.509L104.605 258.859Z" fill="white"/>
<path d="M106.938 258.871C107.658 258.223 108.787 258.875 108.586 259.822L108.225 261.519C108.135 261.943 108.328 262.376 108.703 262.593L110.205 263.46C111.044 263.944 110.773 265.219 109.81 265.321L108.085 265.502C107.654 265.547 107.301 265.865 107.211 266.289L106.851 267.985C106.649 268.933 105.353 269.069 104.959 268.184L104.253 266.599C104.077 266.204 103.666 265.966 103.235 266.012L101.51 266.193C100.547 266.294 100.017 265.103 100.737 264.455L102.026 263.295C102.348 263.005 102.446 262.54 102.27 262.145L101.565 260.56C101.171 259.675 102.139 258.803 102.978 259.287L104.48 260.155C104.856 260.371 105.328 260.322 105.649 260.032L106.938 258.871Z" fill="white"/>
<circle cx="335.444" cy="1561.44" r="6.41955" fill="white"/>
<path d="M334.493 1553.94C334.792 1553.02 336.096 1553.02 336.395 1553.94L337.562 1557.53C337.695 1557.94 338.079 1558.22 338.513 1558.22L342.287 1558.22C343.256 1558.22 343.659 1559.46 342.875 1560.03L339.821 1562.25C339.471 1562.5 339.324 1562.95 339.458 1563.37L340.625 1566.96C340.924 1567.88 339.869 1568.64 339.086 1568.07L336.032 1565.86C335.681 1565.6 335.207 1565.6 334.856 1565.86L331.802 1568.07C331.019 1568.64 329.964 1567.88 330.263 1566.96L331.43 1563.37C331.564 1562.95 331.417 1562.5 331.067 1562.25L328.013 1560.03C327.229 1559.46 327.632 1558.22 328.6 1558.22L332.375 1558.22C332.809 1558.22 333.193 1557.94 333.326 1557.53L334.493 1553.94Z" fill="white"/>
<path d="M338.179 1554.28C338.899 1553.63 340.027 1554.28 339.826 1555.23L339.041 1558.92C338.951 1559.34 339.144 1559.78 339.519 1559.99L342.789 1561.88C343.627 1562.36 343.356 1563.64 342.393 1563.74L338.639 1564.14C338.208 1564.18 337.855 1564.5 337.765 1564.92L336.98 1568.61C336.779 1569.56 335.483 1569.7 335.089 1568.81L333.553 1565.36C333.377 1564.97 332.966 1564.73 332.535 1564.78L328.781 1565.17C327.818 1565.27 327.287 1564.08 328.007 1563.43L330.813 1560.91C331.135 1560.62 331.233 1560.15 331.057 1559.76L329.522 1556.31C329.128 1555.42 330.096 1554.55 330.935 1555.04L334.204 1556.92C334.58 1557.14 335.052 1557.09 335.373 1556.8L338.179 1554.28Z" fill="white"/>
<circle cx="337.194" cy="263.194" r="5.8642" fill="white"/>
<path d="M336.243 256.592C336.543 255.671 337.846 255.671 338.146 256.592L339.109 259.559C339.243 259.971 339.627 260.25 340.06 260.25H343.18C344.148 260.25 344.551 261.489 343.768 262.059L341.244 263.892C340.894 264.147 340.747 264.598 340.881 265.01L341.845 267.977C342.144 268.898 341.09 269.664 340.306 269.095L337.782 267.261C337.432 267.007 336.957 267.007 336.607 267.261L334.083 269.095C333.299 269.664 332.245 268.898 332.544 267.977L333.508 265.01C333.642 264.598 333.495 264.147 333.145 263.892L330.621 262.059C329.838 261.489 330.241 260.25 331.209 260.25H334.328C334.762 260.25 335.146 259.971 335.28 259.559L336.243 256.592Z" fill="white"/>
<path d="M339.495 256.824C340.215 256.176 341.343 256.828 341.142 257.775L340.494 260.826C340.403 261.25 340.596 261.683 340.972 261.9L343.673 263.46C344.512 263.944 344.241 265.219 343.278 265.32L340.175 265.646C339.745 265.692 339.392 266.009 339.302 266.433L338.653 269.484C338.452 270.432 337.156 270.568 336.762 269.683L335.493 266.833C335.317 266.437 334.906 266.2 334.475 266.245L331.373 266.572C330.409 266.673 329.879 265.482 330.599 264.834L332.917 262.747C333.239 262.457 333.338 261.993 333.161 261.597L331.893 258.747C331.499 257.862 332.467 256.99 333.306 257.474L336.008 259.034C336.383 259.251 336.855 259.201 337.177 258.911L339.495 256.824Z" fill="white"/>
<circle cx="265.937" cy="177.937" r="5.74977" fill="white"/>
<path d="M264.986 171.521C265.285 170.599 266.589 170.599 266.888 171.521L267.81 174.359C267.944 174.771 268.328 175.05 268.761 175.05H271.745C272.714 175.05 273.117 176.289 272.333 176.859L269.919 178.613C269.568 178.867 269.422 179.319 269.556 179.731L270.478 182.569C270.777 183.49 269.723 184.256 268.939 183.687L266.525 181.933C266.174 181.678 265.7 181.678 265.349 181.933L262.935 183.687C262.151 184.256 261.097 183.49 261.396 182.569L262.318 179.731C262.452 179.319 262.306 178.867 261.955 178.613L259.541 176.859C258.757 176.289 259.16 175.05 260.129 175.05H263.113C263.546 175.05 263.93 174.771 264.064 174.359L264.986 171.521Z" fill="white"/>
<path d="M268.148 171.731C268.868 171.083 269.997 171.735 269.795 172.682L269.175 175.601C269.085 176.025 269.278 176.458 269.653 176.675L272.237 178.167C273.076 178.651 272.805 179.926 271.842 180.028L268.874 180.34C268.443 180.385 268.09 180.702 268 181.126L267.38 184.045C267.178 184.993 265.882 185.129 265.488 184.244L264.274 181.518C264.098 181.122 263.687 180.885 263.256 180.93L260.289 181.242C259.325 181.343 258.795 180.152 259.515 179.504L261.733 177.507C262.054 177.218 262.153 176.753 261.977 176.358L260.763 173.631C260.369 172.746 261.338 171.874 262.177 172.359L264.761 173.851C265.136 174.067 265.608 174.018 265.93 173.728L268.148 171.731Z" fill="white"/>
<circle cx="320.417" cy="37.4168" r="7.74079" fill="white"/>
<path d="M319.466 27.7651C319.765 26.8438 321.068 26.8438 321.368 27.7651L323.016 32.8388C323.15 33.2508 323.534 33.5297 323.967 33.5297H329.302C330.271 33.5297 330.674 34.7694 329.89 35.3388L325.574 38.4745C325.224 38.7291 325.077 39.1805 325.211 39.5925L326.859 44.6662C327.159 45.5875 326.104 46.3536 325.321 45.7842L321.005 42.6485C320.654 42.3939 320.179 42.3939 319.829 42.6485L315.513 45.7842C314.729 46.3536 313.675 45.5875 313.974 44.6662L315.623 39.5925C315.757 39.1805 315.61 38.7291 315.259 38.4745L310.944 35.3388C310.16 34.7694 310.563 33.5297 311.531 33.5297H316.866C317.299 33.5297 317.683 33.2508 317.817 32.8388L319.466 27.7651Z" fill="white"/>
<path d="M324.185 28.3488C324.905 27.7006 326.034 28.3523 325.832 29.2998L324.723 34.518C324.633 34.9418 324.826 35.3754 325.201 35.592L329.821 38.2594C330.66 38.7437 330.389 40.0187 329.426 40.1199L324.12 40.6775C323.69 40.7228 323.337 41.0404 323.247 41.4642L322.138 46.6824C321.936 47.6299 320.64 47.7662 320.246 46.8812L318.076 42.0076C317.9 41.6119 317.489 41.3746 317.058 41.4198L311.752 41.9775C310.789 42.0787 310.259 40.888 310.979 40.2398L314.943 36.6701C315.265 36.3803 315.364 35.916 315.188 35.5203L313.018 30.6467C312.624 29.7617 313.592 28.8896 314.431 29.3739L319.051 32.0413C319.427 32.2579 319.899 32.2083 320.221 31.9184L324.185 28.3488Z" fill="white"/>
<circle cx="150.725" cy="21.7255" r="9.65576" fill="white"/>
<path d="M149.774 8.96192C150.074 8.0406 151.377 8.04061 151.676 8.96192L154.024 16.1858C154.158 16.5979 154.541 16.8768 154.975 16.8768H162.57C163.539 16.8768 163.942 18.1164 163.158 18.6858L157.013 23.1504C156.663 23.4051 156.516 23.8565 156.65 24.2685L158.997 31.4924C159.296 32.4137 158.242 33.1798 157.458 32.6104L151.313 28.1458C150.963 27.8912 150.488 27.8912 150.138 28.1458L143.993 32.6104C143.209 33.1798 142.154 32.4137 142.454 31.4924L144.801 24.2685C144.935 23.8565 144.788 23.4051 144.438 23.1504L138.293 18.6858C137.509 18.1164 137.912 16.8768 138.88 16.8768H146.476C146.909 16.8768 147.293 16.5978 147.427 16.1858L149.774 8.96192Z" fill="white"/>
<path d="M155.992 9.90467C156.712 9.25647 157.841 9.90818 157.639 10.8557L156.06 18.2854C155.97 18.7092 156.163 19.1427 156.538 19.3594L163.116 23.1572C163.955 23.6416 163.684 24.9165 162.721 25.0177L155.167 25.8117C154.736 25.857 154.383 26.1745 154.293 26.5983L152.714 34.028C152.512 34.9756 151.216 35.1118 150.822 34.2268L147.733 27.2878C147.556 26.8921 147.145 26.6548 146.715 26.7L139.16 27.494C138.197 27.5953 137.667 26.4045 138.387 25.7563L144.031 20.6738C144.353 20.384 144.452 19.9197 144.276 19.524L141.186 12.585C140.792 11.7 141.761 10.8279 142.6 11.3122L149.178 15.1101C149.553 15.3267 150.025 15.2771 150.347 14.9872L155.992 9.90467Z" fill="white"/>
<circle cx="225.455" cy="394.455" r="5.09122" fill="white"/>
<path d="M224.504 389.109C224.804 388.188 226.107 388.188 226.406 389.109L227.088 391.208C227.222 391.62 227.606 391.899 228.039 391.899H230.246C231.215 391.899 231.617 393.138 230.834 393.708L229.048 395.005C228.698 395.259 228.551 395.711 228.685 396.123L229.367 398.221C229.666 399.143 228.612 399.909 227.828 399.339L226.043 398.042C225.693 397.788 225.218 397.788 224.867 398.042L223.082 399.339C222.299 399.909 221.244 399.143 221.543 398.221L222.225 396.123C222.359 395.711 222.213 395.259 221.862 395.005L220.077 393.708C219.293 393.138 219.696 391.899 220.665 391.899H222.871C223.304 391.899 223.688 391.62 223.822 391.208L224.504 389.109Z" fill="white"/>
<path d="M227.151 389.196C227.871 388.548 229 389.199 228.798 390.147L228.339 392.305C228.249 392.729 228.442 393.163 228.818 393.379L230.729 394.483C231.567 394.967 231.296 396.242 230.333 396.343L228.138 396.574C227.708 396.619 227.355 396.937 227.265 397.361L226.806 399.519C226.605 400.466 225.308 400.603 224.914 399.718L224.017 397.702C223.841 397.306 223.43 397.069 222.999 397.114L220.804 397.345C219.841 397.446 219.311 396.255 220.031 395.607L221.67 394.131C221.992 393.841 222.091 393.376 221.915 392.981L221.017 390.965C220.623 390.08 221.592 389.208 222.431 389.692L224.342 390.795C224.717 391.012 225.189 390.962 225.511 390.673L227.151 389.196Z" fill="white"/>
<circle cx="75.0932" cy="484.153" r="4.69137" transform="rotate(62.2063 75.0932 484.153)" fill="white"/>
<path d="M78.8043 481.122C79.7589 480.957 80.3666 482.11 79.6912 482.805L78.4818 484.048C78.1797 484.359 78.112 484.828 78.314 485.212L79.1228 486.746C79.5745 487.603 78.6657 488.537 77.7966 488.11L76.2403 487.344C75.8516 487.152 75.3839 487.233 75.0819 487.544L73.8724 488.787C73.197 489.481 72.0276 488.906 72.1659 487.947L72.4134 486.23C72.4753 485.801 72.254 485.382 71.8653 485.19L70.309 484.424C69.4399 483.996 69.6259 482.706 70.5805 482.542L72.2898 482.247C72.7167 482.173 73.0476 481.833 73.1095 481.404L73.3571 479.687C73.4953 478.728 74.7797 478.507 75.2314 479.364L76.0403 480.898C76.2423 481.281 76.6681 481.491 77.095 481.417L78.8043 481.122Z" fill="white"/>
<path d="M79.882 483.192C80.7911 483.527 80.7409 484.829 79.8087 485.093L78.1397 485.565C77.7228 485.683 77.4293 486.056 77.4126 486.489L77.3458 488.222C77.3085 489.19 76.0543 489.545 75.5155 488.74L74.5507 487.298C74.3098 486.938 73.8644 486.774 73.4475 486.892L71.7784 487.364C70.8463 487.628 70.1213 486.545 70.7205 485.784L71.7933 484.421C72.0612 484.08 72.0795 483.606 71.8385 483.246L70.8738 481.804C70.335 480.999 71.1411 479.975 72.0502 480.31L73.678 480.909C74.0846 481.059 74.5413 480.929 74.8092 480.589L75.882 479.226C76.4812 478.465 77.7044 478.915 77.6671 479.883L77.6003 481.616C77.5836 482.049 77.8476 482.444 78.2542 482.593L79.882 483.192Z" fill="white"/>
<circle cx="286.813" cy="696.859" r="6.41955" transform="rotate(62.2063 286.813 696.859)" fill="white"/>
<path d="M293.008 692.518C293.963 692.353 294.57 693.506 293.895 694.201L291.263 696.907C290.961 697.217 290.893 697.687 291.095 698.07L292.855 701.41C293.307 702.267 292.398 703.201 291.529 702.773L288.142 701.106C287.754 700.915 287.286 700.995 286.984 701.306L284.352 704.012C283.676 704.706 282.507 704.131 282.645 703.172L283.184 699.436C283.246 699.007 283.025 698.587 282.636 698.396L279.249 696.729C278.38 696.301 278.566 695.011 279.52 694.846L283.24 694.204C283.667 694.13 283.998 693.79 284.06 693.361L284.599 689.625C284.737 688.666 286.022 688.445 286.473 689.302L288.233 692.641C288.435 693.024 288.861 693.234 289.288 693.16L293.008 692.518Z" fill="white"/>
<path d="M294.429 695.935C295.339 696.27 295.288 697.572 294.356 697.836L290.724 698.863C290.307 698.981 290.013 699.354 289.997 699.787L289.851 703.559C289.814 704.527 288.56 704.882 288.021 704.077L285.922 700.94C285.681 700.58 285.235 700.416 284.818 700.534L281.186 701.561C280.254 701.825 279.529 700.742 280.128 699.98L282.463 697.014C282.731 696.674 282.749 696.2 282.508 695.84L280.408 692.702C279.87 691.897 280.676 690.873 281.585 691.208L285.127 692.512C285.534 692.661 285.991 692.532 286.259 692.192L288.593 689.225C289.192 688.464 290.416 688.914 290.378 689.882L290.233 693.654C290.216 694.087 290.48 694.482 290.887 694.631L294.429 695.935Z" fill="white"/>
<circle cx="183.423" cy="688.9" r="5.8642" transform="rotate(62.2063 183.423 688.9)" fill="white"/>
<path d="M188.82 684.98C189.775 684.816 190.383 685.969 189.707 686.663L187.533 688.899C187.23 689.21 187.163 689.679 187.365 690.063L188.819 692.822C189.271 693.679 188.362 694.613 187.493 694.185L184.694 692.808C184.306 692.617 183.838 692.697 183.536 693.008L181.361 695.244C180.686 695.938 179.516 695.363 179.654 694.404L180.1 691.317C180.162 690.888 179.94 690.468 179.552 690.277L176.753 688.899C175.884 688.471 176.07 687.181 177.024 687.017L180.098 686.486C180.525 686.412 180.856 686.072 180.918 685.643L181.363 682.556C181.501 681.597 182.786 681.375 183.238 682.232L184.692 684.992C184.894 685.375 185.32 685.585 185.747 685.511L188.82 684.98Z" fill="white"/>
<path d="M190.131 687.965C191.041 688.299 190.99 689.602 190.058 689.865L187.057 690.714C186.64 690.832 186.346 691.205 186.33 691.638L186.21 694.755C186.172 695.723 184.918 696.078 184.379 695.273L182.644 692.681C182.403 692.321 181.958 692.157 181.541 692.275L178.54 693.123C177.608 693.387 176.883 692.304 177.482 691.543L179.411 689.092C179.679 688.751 179.697 688.277 179.456 687.917L177.721 685.325C177.182 684.52 177.989 683.495 178.898 683.83L181.825 684.907C182.232 685.057 182.688 684.928 182.956 684.588L184.885 682.136C185.485 681.375 186.708 681.825 186.67 682.793L186.55 685.91C186.534 686.343 186.798 686.738 187.204 686.887L190.131 687.965Z" fill="white"/>
<circle cx="225.618" cy="586.109" r="5.74977" transform="rotate(62.2063 225.618 586.109)" fill="white"/>
<path d="M230.851 582.276C231.805 582.111 232.413 583.264 231.738 583.958L229.657 586.098C229.355 586.408 229.287 586.878 229.489 587.261L230.881 589.901C231.332 590.758 230.424 591.692 229.555 591.264L226.877 589.947C226.488 589.755 226.021 589.836 225.719 590.147L223.638 592.286C222.963 592.98 221.793 592.405 221.931 591.446L222.357 588.492C222.419 588.063 222.198 587.644 221.809 587.452L219.132 586.134C218.263 585.707 218.449 584.417 219.403 584.252L222.344 583.744C222.771 583.67 223.102 583.33 223.164 582.901L223.59 579.948C223.728 578.989 225.012 578.767 225.464 579.624L226.855 582.264C227.057 582.647 227.483 582.857 227.91 582.783L230.851 582.276Z" fill="white"/>
<path d="M232.139 585.171C233.048 585.506 232.998 586.808 232.066 587.072L229.194 587.884C228.778 588.002 228.484 588.375 228.467 588.808L228.352 591.79C228.315 592.758 227.061 593.112 226.522 592.307L224.862 589.827C224.621 589.467 224.176 589.303 223.759 589.421L220.888 590.233C219.955 590.497 219.231 589.414 219.83 588.653L221.675 586.308C221.943 585.967 221.962 585.493 221.721 585.133L220.061 582.653C219.522 581.848 220.328 580.824 221.237 581.158L224.038 582.189C224.444 582.339 224.901 582.21 225.169 581.869L227.015 579.524C227.614 578.763 228.837 579.213 228.8 580.181L228.685 583.163C228.668 583.596 228.932 583.991 229.339 584.14L232.139 585.171Z" fill="white"/>
<circle cx="375.33" cy="568.781" r="7.74079" transform="rotate(62.2063 375.33 568.781)" fill="white"/>
<path d="M383.425 563.439C384.38 563.274 384.988 564.427 384.312 565.121L380.592 568.946C380.29 569.256 380.223 569.726 380.425 570.109L382.912 574.828C383.364 575.685 382.455 576.62 381.586 576.192L376.8 573.836C376.411 573.645 375.943 573.725 375.641 574.036L371.921 577.86C371.246 578.555 370.077 577.979 370.215 577.02L370.976 571.74C371.038 571.311 370.817 570.891 370.428 570.7L365.642 568.344C364.773 567.916 364.959 566.626 365.913 566.462L371.17 565.554C371.597 565.48 371.928 565.14 371.99 564.711L372.751 559.431C372.89 558.472 374.174 558.251 374.626 559.108L377.113 563.827C377.315 564.21 377.741 564.42 378.168 564.346L383.425 563.439Z" fill="white"/>
<path d="M385.109 567.886C386.019 568.22 385.968 569.523 385.036 569.787L379.903 571.239C379.486 571.356 379.192 571.729 379.176 572.162L378.97 577.493C378.933 578.461 377.679 578.816 377.14 578.011L374.173 573.577C373.932 573.217 373.486 573.053 373.07 573.171L367.936 574.623C367.004 574.887 366.279 573.804 366.878 573.043L370.178 568.851C370.446 568.51 370.464 568.036 370.223 567.676L367.256 563.242C366.717 562.437 367.523 561.413 368.432 561.748L373.439 563.59C373.845 563.74 374.302 563.611 374.57 563.27L377.869 559.078C378.469 558.317 379.692 558.767 379.654 559.735L379.449 565.066C379.432 565.499 379.696 565.894 380.103 566.043L385.109 567.886Z" fill="white"/>
<circle cx="310.086" cy="411.349" r="9.65576" transform="rotate(62.2063 310.086 411.349)" fill="white"/>
<path d="M320.934 404.557C321.888 404.392 322.496 405.545 321.821 406.239L316.525 411.684C316.223 411.995 316.155 412.464 316.357 412.848L319.899 419.567C320.35 420.424 319.442 421.358 318.572 420.93L311.758 417.576C311.369 417.385 310.901 417.466 310.599 417.776L305.303 423.221C304.628 423.915 303.458 423.34 303.596 422.381L304.681 414.863C304.742 414.434 304.521 414.014 304.132 413.823L297.318 410.469C296.448 410.041 296.634 408.751 297.589 408.586L305.074 407.294C305.501 407.22 305.832 406.88 305.894 406.451L306.978 398.934C307.116 397.975 308.401 397.753 308.852 398.61L312.394 405.329C312.596 405.713 313.022 405.922 313.449 405.849L320.934 404.557Z" fill="white"/>
<path d="M322.999 410.496C323.908 410.831 323.858 412.133 322.926 412.397L315.617 414.464C315.2 414.582 314.906 414.955 314.89 415.388L314.597 422.978C314.56 423.946 313.306 424.301 312.767 423.496L308.542 417.184C308.301 416.823 307.856 416.66 307.439 416.777L300.13 418.845C299.198 419.108 298.473 418.025 299.072 417.264L303.77 411.295C304.038 410.955 304.056 410.481 303.815 410.121L299.591 403.808C299.052 403.003 299.858 401.979 300.767 402.314L307.895 404.937C308.302 405.087 308.758 404.958 309.026 404.617L313.724 398.649C314.323 397.888 315.547 398.338 315.509 399.306L315.217 406.896C315.2 407.329 315.464 407.723 315.871 407.873L322.999 410.496Z" fill="white"/>
<circle cx="15.203" cy="651.258" r="5.09122" transform="rotate(62.2063 15.203 651.258)" fill="white"/>
<path d="M19.489 647.923C20.4436 647.759 21.0513 648.912 20.3759 649.606L18.8373 651.188C18.5353 651.498 18.4675 651.968 18.6695 652.351L19.6985 654.303C20.1502 655.16 19.2414 656.095 18.3722 655.667L16.3924 654.692C16.0037 654.501 15.536 654.582 15.234 654.892L13.6954 656.474C13.02 657.169 11.8505 656.593 11.9888 655.634L12.3038 653.45C12.3656 653.021 12.1443 652.602 11.7556 652.41L9.77581 651.436C8.90666 651.008 9.09271 649.718 10.0473 649.553L12.2218 649.178C12.6487 649.104 12.9796 648.764 13.0414 648.335L13.3564 646.151C13.4947 645.192 14.7791 644.971 15.2308 645.827L16.2597 647.78C16.4618 648.163 16.8876 648.372 17.3145 648.299L19.489 647.923Z" fill="white"/>
<path d="M20.6462 650.305C21.5553 650.64 21.5051 651.942 20.573 652.206L18.4496 652.807C18.0328 652.924 17.7392 653.297 17.7226 653.73L17.6376 655.935C17.6003 656.903 16.3461 657.258 15.8073 656.453L14.58 654.619C14.339 654.259 13.8936 654.095 13.4767 654.213L11.3534 654.814C10.4213 655.077 9.6963 653.994 10.2954 653.233L11.6602 651.499C11.9282 651.159 11.9465 650.684 11.7055 650.324L10.4782 648.491C9.93935 647.685 10.7455 646.661 11.6546 646.996L13.7254 647.758C14.132 647.908 14.5887 647.779 14.8566 647.438L16.2214 645.704C16.8206 644.943 18.0438 645.393 18.0065 646.361L17.9215 648.566C17.9048 648.999 18.1688 649.393 18.5754 649.543L20.6462 650.305Z" fill="white"/>
<circle cx="282.869" cy="1242.8" r="4.69137" transform="rotate(-177.02 282.869 1242.8)" fill="white"/>
<path d="M283.574 1247.54C283.227 1248.44 281.926 1248.37 281.675 1247.44L281.225 1245.76C281.113 1245.34 280.744 1245.05 280.311 1245.02L278.579 1244.93C277.612 1244.88 277.274 1243.62 278.086 1243.1L279.541 1242.15C279.904 1241.91 280.074 1241.47 279.962 1241.05L279.512 1239.38C279.261 1238.44 280.354 1237.73 281.107 1238.34L282.455 1239.43C282.792 1239.7 283.266 1239.73 283.629 1239.49L285.084 1238.55C285.896 1238.02 286.909 1238.84 286.562 1239.74L285.941 1241.36C285.786 1241.77 285.909 1242.23 286.246 1242.5L287.594 1243.59C288.347 1244.2 287.881 1245.42 286.913 1245.37L285.181 1245.28C284.748 1245.25 284.35 1245.51 284.195 1245.92L283.574 1247.54Z" fill="white"/>
<path d="M281.244 1247.4C280.492 1248.01 279.398 1247.3 279.649 1246.37L280.097 1244.69C280.209 1244.27 280.039 1243.83 279.675 1243.59L278.22 1242.65C277.408 1242.12 277.745 1240.86 278.712 1240.81L280.444 1240.72C280.877 1240.7 281.245 1240.4 281.357 1239.98L281.806 1238.31C282.056 1237.37 283.358 1237.3 283.705 1238.21L284.327 1239.82C284.483 1240.23 284.881 1240.49 285.314 1240.46L287.046 1240.37C288.013 1240.32 288.481 1241.54 287.728 1242.15L286.38 1243.24C286.044 1243.51 285.921 1243.97 286.076 1244.38L286.699 1246C287.046 1246.9 286.033 1247.72 285.221 1247.19L283.766 1246.25C283.402 1246.01 282.928 1246.04 282.592 1246.31L281.244 1247.4Z" fill="white"/>
<circle cx="61.788" cy="1443.77" r="6.41955" transform="rotate(-177.02 61.788 1443.77)" fill="white"/>
<path d="M62.3476 1451.31C62.0008 1452.22 60.6991 1452.15 60.4481 1451.21L59.4697 1447.57C59.3575 1447.15 58.9885 1446.85 58.5559 1446.83L54.7861 1446.63C53.8187 1446.58 53.4809 1445.32 54.2932 1444.79L57.4583 1442.74C57.8216 1442.5 57.9915 1442.06 57.8792 1441.64L56.9009 1437.99C56.6499 1437.06 57.7427 1436.35 58.4958 1436.96L61.4303 1439.33C61.7671 1439.6 62.241 1439.63 62.6043 1439.39L65.7694 1437.34C66.5817 1436.81 67.5949 1437.63 67.2481 1438.53L65.8965 1442.06C65.7414 1442.46 65.8644 1442.92 66.2012 1443.19L69.1357 1445.57C69.8887 1446.18 69.4221 1447.39 68.4546 1447.34L64.6848 1447.15C64.2522 1447.12 63.8543 1447.38 63.6992 1447.79L62.3476 1451.31Z" fill="white"/>
<path d="M58.6842 1450.78C57.9316 1451.39 56.8382 1450.69 57.0886 1449.75L58.0644 1446.1C58.1763 1445.68 58.0061 1445.24 57.6427 1445.01L54.4761 1442.95C53.6634 1442.42 54.0003 1441.16 54.9677 1441.11L58.7374 1440.91C59.17 1440.89 59.5387 1440.59 59.6507 1440.17L60.6264 1436.53C60.8768 1435.59 62.1784 1435.52 62.5259 1436.43L63.88 1439.95C64.0353 1440.36 64.4335 1440.61 64.8661 1440.59L68.6357 1440.39C69.6031 1440.34 70.0707 1441.56 69.318 1442.17L66.3852 1444.54C66.0486 1444.82 65.926 1445.28 66.0814 1445.68L67.4354 1449.2C67.7829 1450.11 66.7702 1450.93 65.9576 1450.4L62.791 1448.35C62.4276 1448.11 61.9536 1448.14 61.6171 1448.41L58.6842 1450.78Z" fill="white"/>
<circle cx="51.5243" cy="1231.12" r="5.8642" transform="rotate(-177.02 51.5243 1231.12)" fill="white"/>
<path d="M52.1309 1237.76C51.7841 1238.66 50.4824 1238.6 50.2314 1237.66L49.423 1234.65C49.3107 1234.23 48.9418 1233.93 48.5091 1233.91L45.3941 1233.75C44.4267 1233.7 44.0889 1232.44 44.9012 1231.91L47.5166 1230.21C47.8798 1229.97 48.0497 1229.53 47.9375 1229.11L47.1291 1226.1C46.878 1225.16 47.9709 1224.45 48.724 1225.06L51.1488 1227.02C51.4855 1227.3 51.9595 1227.32 52.3227 1227.09L54.9381 1225.39C55.7504 1224.86 56.7636 1225.68 56.4168 1226.58L55.3 1229.49C55.1449 1229.9 55.2679 1230.36 55.6046 1230.63L58.0294 1232.59C58.7825 1233.2 58.3158 1234.42 57.3484 1234.37L54.2334 1234.21C53.8008 1234.18 53.4028 1234.44 53.2477 1234.85L52.1309 1237.76Z" fill="white"/>
<path d="M48.8959 1237.36C48.1432 1237.97 47.0499 1237.26 47.3003 1236.32L48.1065 1233.31C48.2185 1232.89 48.0482 1232.45 47.6848 1232.21L45.0682 1230.51C44.2556 1229.99 44.5925 1228.73 45.5599 1228.68L48.6748 1228.51C49.1074 1228.49 49.4761 1228.19 49.5881 1227.77L50.3944 1224.76C50.6448 1223.82 51.9464 1223.75 52.2938 1224.66L53.4127 1227.57C53.5681 1227.98 53.9662 1228.23 54.3988 1228.21L57.5137 1228.05C58.4811 1228 58.9486 1229.21 58.196 1229.82L55.7726 1231.79C55.436 1232.06 55.3134 1232.52 55.4688 1232.92L56.5876 1235.83C56.9351 1236.74 55.9224 1237.56 55.1098 1237.03L52.4932 1235.33C52.1298 1235.1 51.6559 1235.12 51.3193 1235.39L48.8959 1237.36Z" fill="white"/>
<circle cx="118.254" cy="1319.96" r="5.74977" transform="rotate(-177.02 118.254 1319.96)" fill="white"/>
<path d="M118.87 1326.42C118.523 1327.32 117.221 1327.26 116.97 1326.32L116.197 1323.44C116.085 1323.02 115.716 1322.72 115.283 1322.7L112.303 1322.54C111.335 1322.49 110.998 1321.23 111.81 1320.71L114.312 1319.08C114.675 1318.84 114.845 1318.4 114.733 1317.98L113.96 1315.1C113.708 1314.17 114.801 1313.45 115.554 1314.06L117.874 1315.94C118.211 1316.21 118.685 1316.24 119.048 1316L121.55 1314.38C122.363 1313.85 123.376 1314.67 123.029 1315.57L121.961 1318.36C121.805 1318.76 121.928 1319.22 122.265 1319.49L124.585 1321.37C125.338 1321.98 124.871 1323.2 123.904 1323.15L120.924 1322.99C120.491 1322.97 120.093 1323.23 119.938 1323.63L118.87 1326.42Z" fill="white"/>
<path d="M115.723 1326.05C114.97 1326.66 113.877 1325.95 114.128 1325.01L114.899 1322.13C115.011 1321.71 114.841 1321.27 114.477 1321.03L111.974 1319.41C111.161 1318.88 111.498 1317.62 112.466 1317.57L115.446 1317.41C115.878 1317.39 116.247 1317.09 116.359 1316.67L117.13 1313.79C117.381 1312.85 118.682 1312.78 119.03 1313.69L120.1 1316.47C120.255 1316.88 120.654 1317.14 121.086 1317.11L124.066 1316.96C125.034 1316.9 125.501 1318.12 124.748 1318.73L122.43 1320.61C122.093 1320.88 121.971 1321.34 122.126 1321.75L123.197 1324.53C123.544 1325.44 122.531 1326.26 121.719 1325.73L119.215 1324.1C118.852 1323.87 118.378 1323.89 118.042 1324.17L115.723 1326.05Z" fill="white"/>
<circle cx="343.831" cy="1149.81" r="7.74079" transform="rotate(-177.02 343.831 1149.81)" fill="white"/>
<path d="M344.28 1159.5C343.933 1160.4 342.631 1160.33 342.38 1159.4L340.997 1154.24C340.885 1153.83 340.516 1153.53 340.084 1153.5L334.756 1153.23C333.789 1153.18 333.451 1151.92 334.263 1151.39L338.736 1148.48C339.099 1148.25 339.269 1147.8 339.157 1147.39L337.774 1142.23C337.523 1141.3 338.616 1140.59 339.369 1141.2L343.516 1144.55C343.853 1144.82 344.327 1144.85 344.69 1144.61L349.164 1141.71C349.976 1141.18 350.989 1142 350.642 1142.9L348.732 1147.88C348.577 1148.29 348.7 1148.75 349.037 1149.02L353.184 1152.37C353.937 1152.98 353.47 1154.2 352.503 1154.15L347.175 1153.87C346.743 1153.85 346.345 1154.11 346.19 1154.51L344.28 1159.5Z" fill="white"/>
<path d="M339.597 1158.67C338.844 1159.28 337.751 1158.57 338.001 1157.63L339.38 1152.48C339.492 1152.06 339.322 1151.62 338.958 1151.38L334.483 1148.48C333.671 1147.95 334.008 1146.69 334.975 1146.64L340.302 1146.36C340.735 1146.34 341.104 1146.04 341.216 1145.62L342.595 1140.46C342.845 1139.53 344.147 1139.46 344.494 1140.36L346.408 1145.34C346.563 1145.75 346.961 1146.01 347.394 1145.98L352.721 1145.7C353.689 1145.65 354.156 1146.87 353.403 1147.48L349.259 1150.84C348.922 1151.11 348.799 1151.57 348.955 1151.97L350.868 1156.95C351.216 1157.86 350.203 1158.68 349.391 1158.15L344.915 1155.25C344.552 1155.01 344.078 1155.04 343.742 1155.31L339.597 1158.67Z" fill="white"/>
<circle cx="225.189" cy="1481.95" r="9.65576" transform="rotate(-177.02 225.189 1481.95)" fill="white"/>
<path d="M225.475 1494.75C225.128 1495.65 223.827 1495.58 223.575 1494.65L221.607 1487.31C221.495 1486.89 221.126 1486.6 220.693 1486.57L213.108 1486.18C212.14 1486.13 211.803 1484.87 212.615 1484.34L218.984 1480.2C219.347 1479.97 219.517 1479.52 219.404 1479.1L217.436 1471.77C217.185 1470.83 218.278 1470.12 219.031 1470.73L224.935 1475.51C225.272 1475.78 225.746 1475.81 226.109 1475.57L232.478 1471.43C233.291 1470.9 234.304 1471.72 233.957 1472.63L231.237 1479.72C231.082 1480.12 231.205 1480.58 231.542 1480.86L237.447 1485.63C238.2 1486.24 237.733 1487.46 236.766 1487.41L229.18 1487.01C228.748 1486.99 228.35 1487.25 228.195 1487.66L225.475 1494.75Z" fill="white"/>
<path d="M219.315 1493.48C218.562 1494.09 217.469 1493.38 217.719 1492.45L219.683 1485.11C219.795 1484.69 219.624 1484.25 219.261 1484.01L212.889 1479.88C212.077 1479.35 212.413 1478.09 213.381 1478.04L220.966 1477.64C221.399 1477.62 221.767 1477.32 221.879 1476.9L223.843 1469.56C224.093 1468.63 225.395 1468.56 225.742 1469.46L228.467 1476.55C228.622 1476.96 229.02 1477.22 229.453 1477.19L237.038 1476.79C238.005 1476.74 238.473 1477.96 237.72 1478.57L231.819 1483.35C231.482 1483.62 231.36 1484.08 231.515 1484.49L234.24 1491.58C234.587 1492.48 233.574 1493.3 232.762 1492.77L226.39 1488.64C226.027 1488.4 225.553 1488.43 225.216 1488.7L219.315 1493.48Z" fill="white"/>
<circle cx="169.936" cy="1105.84" r="5.09122" transform="rotate(-177.02 169.936 1105.84)" fill="white"/>
<path d="M170.608 1111.23C170.261 1112.13 168.959 1112.07 168.708 1111.13L168.136 1109C168.024 1108.58 167.655 1108.28 167.222 1108.26L165.019 1108.15C164.051 1108.1 163.714 1106.84 164.526 1106.31L166.376 1105.11C166.739 1104.87 166.909 1104.43 166.797 1104.01L166.225 1101.88C165.974 1100.94 167.067 1100.23 167.82 1100.84L169.535 1102.23C169.872 1102.5 170.346 1102.53 170.709 1102.29L172.56 1101.09C173.372 1100.56 174.385 1101.38 174.038 1102.28L173.248 1104.34C173.093 1104.75 173.216 1105.21 173.553 1105.48L175.268 1106.87C176.021 1107.48 175.555 1108.69 174.587 1108.64L172.383 1108.53C171.951 1108.51 171.553 1108.76 171.398 1109.17L170.608 1111.23Z" fill="white"/>
<path d="M167.969 1111.01C167.216 1111.62 166.123 1110.91 166.373 1109.97L166.944 1107.84C167.056 1107.42 166.886 1106.98 166.522 1106.74L164.671 1105.54C163.858 1105.01 164.195 1103.75 165.163 1103.7L167.366 1103.59C167.799 1103.56 168.168 1103.26 168.28 1102.85L168.85 1100.71C169.1 1099.78 170.402 1099.71 170.749 1100.61L171.541 1102.67C171.696 1103.08 172.095 1103.34 172.527 1103.31L174.731 1103.2C175.698 1103.15 176.166 1104.36 175.413 1104.97L173.699 1106.36C173.362 1106.64 173.239 1107.09 173.395 1107.5L174.186 1109.56C174.534 1110.46 173.521 1111.28 172.708 1110.76L170.857 1109.55C170.494 1109.32 170.02 1109.34 169.683 1109.62L167.969 1111.01Z" fill="white"/>
<circle cx="324.757" cy="1024.08" r="4.69137" transform="rotate(-114.814 324.757 1024.08)" fill="white"/>
<path d="M320.894 1026.92C319.932 1027.03 319.385 1025.85 320.095 1025.19L321.368 1024.01C321.686 1023.72 321.778 1023.25 321.596 1022.86L320.868 1021.28C320.461 1020.4 321.418 1019.52 322.263 1019.99L323.778 1020.84C324.156 1021.05 324.627 1020.99 324.945 1020.7L326.217 1019.52C326.928 1018.86 328.066 1019.49 327.878 1020.44L327.541 1022.15C327.457 1022.57 327.657 1023 328.035 1023.21L329.549 1024.06C330.395 1024.53 330.142 1025.81 329.18 1025.93L327.458 1026.13C327.028 1026.18 326.679 1026.5 326.595 1026.93L326.259 1028.63C326.071 1029.58 324.777 1029.74 324.37 1028.86L323.642 1027.28C323.461 1026.89 323.046 1026.66 322.616 1026.71L320.894 1026.92Z" fill="white"/>
<path d="M319.925 1024.79C319.035 1024.41 319.152 1023.11 320.097 1022.9L321.788 1022.51C322.211 1022.42 322.523 1022.06 322.562 1021.63L322.719 1019.9C322.807 1018.94 324.078 1018.65 324.574 1019.48L325.463 1020.97C325.684 1021.34 326.121 1021.53 326.543 1021.43L328.235 1021.05C329.179 1020.83 329.847 1021.95 329.209 1022.68L328.067 1023.99C327.781 1024.31 327.738 1024.78 327.96 1025.16L328.849 1026.65C329.345 1027.48 328.487 1028.46 327.596 1028.08L326.002 1027.39C325.604 1027.22 325.141 1027.33 324.856 1027.66L323.713 1028.96C323.075 1029.69 321.877 1029.18 321.965 1028.21L322.122 1026.48C322.161 1026.05 321.918 1025.65 321.52 1025.47L319.925 1024.79Z" fill="white"/>
<circle cx="124.381" cy="800.657" r="6.41955" transform="rotate(-114.814 124.381 800.657)" fill="white"/>
<path d="M117.969 804.67C117.007 804.785 116.46 803.602 117.17 802.944L119.94 800.378C120.257 800.084 120.349 799.618 120.168 799.225L118.583 795.799C118.177 794.919 119.133 794.033 119.979 794.506L123.274 796.347C123.653 796.558 124.124 796.502 124.442 796.207L127.211 793.642C127.921 792.983 129.059 793.619 128.871 794.569L128.139 798.272C128.055 798.697 128.254 799.128 128.632 799.339L131.928 801.18C132.774 801.653 132.521 802.931 131.559 803.046L127.811 803.494C127.381 803.546 127.032 803.868 126.948 804.293L126.216 807.996C126.028 808.947 124.734 809.101 124.327 808.222L122.743 804.796C122.561 804.402 122.147 804.171 121.717 804.222L117.969 804.67Z" fill="white"/>
<path d="M116.727 801.184C115.836 800.802 115.954 799.504 116.899 799.289L120.58 798.452C121.002 798.356 121.315 797.999 121.354 797.567L121.695 793.808C121.782 792.843 123.053 792.554 123.55 793.386L125.483 796.628C125.705 797 126.142 797.187 126.564 797.091L130.245 796.254C131.189 796.039 131.857 797.158 131.219 797.887L128.733 800.728C128.448 801.054 128.405 801.527 128.627 801.899L130.561 805.141C131.057 805.973 130.199 806.954 129.308 806.572L125.838 805.086C125.44 804.916 124.977 805.021 124.692 805.347L122.206 808.188C121.568 808.917 120.37 808.404 120.458 807.439L120.799 803.679C120.838 803.248 120.595 802.84 120.197 802.67L116.727 801.184Z" fill="white"/>
<circle cx="227.217" cy="813.98" r="5.8642" transform="rotate(-114.814 227.217 813.98)" fill="white"/>
<path d="M221.623 817.614C220.662 817.729 220.115 816.545 220.825 815.887L223.113 813.767C223.431 813.473 223.523 813.007 223.341 812.614L222.032 809.783C221.626 808.903 222.582 808.018 223.428 808.49L226.151 810.011C226.529 810.222 227 810.166 227.318 809.872L229.606 807.752C230.317 807.093 231.455 807.729 231.267 808.679L230.662 811.739C230.578 812.164 230.777 812.595 231.155 812.806L233.878 814.327C234.724 814.8 234.471 816.078 233.509 816.193L230.412 816.563C229.982 816.615 229.634 816.937 229.55 817.362L228.945 820.422C228.757 821.373 227.463 821.527 227.056 820.648L225.747 817.817C225.565 817.424 225.151 817.192 224.721 817.244L221.623 817.614Z" fill="white"/>
<path d="M220.469 814.565C219.579 814.184 219.697 812.886 220.641 812.671L223.683 811.979C224.105 811.883 224.418 811.526 224.457 811.094L224.739 807.988C224.827 807.023 226.097 806.734 226.594 807.566L228.192 810.245C228.413 810.617 228.85 810.804 229.272 810.708L232.314 810.016C233.258 809.801 233.926 810.92 233.288 811.649L231.234 813.997C230.949 814.323 230.906 814.796 231.128 815.168L232.726 817.847C233.222 818.679 232.364 819.659 231.473 819.278L228.606 818.05C228.208 817.879 227.745 817.985 227.459 818.311L225.405 820.658C224.768 821.387 223.569 820.874 223.657 819.909L223.939 816.803C223.978 816.371 223.735 815.964 223.337 815.793L220.469 814.565Z" fill="white"/>
<circle cx="179.736" cy="914.438" r="5.74977" transform="rotate(-114.814 179.736 914.438)" fill="white"/>
<path d="M174.311 917.994C173.349 918.109 172.802 916.926 173.513 916.268L175.702 914.24C176.02 913.945 176.112 913.48 175.93 913.087L174.677 910.378C174.271 909.499 175.227 908.613 176.073 909.085L178.678 910.541C179.056 910.752 179.527 910.695 179.845 910.401L182.034 908.373C182.745 907.715 183.883 908.35 183.695 909.301L183.116 912.228C183.032 912.653 183.231 913.084 183.609 913.295L186.215 914.75C187.06 915.223 186.808 916.501 185.846 916.616L182.883 916.97C182.452 917.022 182.104 917.344 182.02 917.769L181.441 920.697C181.253 921.647 179.959 921.802 179.553 920.922L178.3 918.214C178.119 917.82 177.704 917.589 177.274 917.64L174.311 917.994Z" fill="white"/>
<path d="M173.175 915.036C172.285 914.655 172.402 913.357 173.347 913.142L176.257 912.48C176.679 912.384 176.992 912.027 177.031 911.595L177.301 908.623C177.388 907.659 178.659 907.37 179.155 908.202L180.684 910.764C180.906 911.136 181.342 911.323 181.765 911.227L184.674 910.565C185.619 910.351 186.287 911.47 185.649 912.199L183.684 914.445C183.398 914.771 183.356 915.244 183.577 915.616L185.106 918.178C185.602 919.01 184.744 919.991 183.854 919.61L181.11 918.435C180.712 918.264 180.249 918.37 179.964 918.696L177.999 920.942C177.361 921.671 176.163 921.157 176.251 920.193L176.52 917.221C176.559 916.789 176.316 916.382 175.918 916.211L173.175 915.036Z" fill="white"/>
<circle cx="29.3254" cy="923.961" r="7.74079" transform="rotate(-114.814 29.3254 923.961)" fill="white"/>
<path d="M20.9639 928.875C20.002 928.99 19.455 927.807 20.1656 927.148L24.079 923.523C24.3968 923.228 24.4889 922.763 24.3071 922.369L22.0682 917.527C21.6617 916.648 22.6178 915.762 23.4635 916.234L28.121 918.836C28.4993 919.047 28.9705 918.991 29.2883 918.696L33.2017 915.071C33.9123 914.412 35.0503 915.048 34.8623 915.998L33.8274 921.232C33.7434 921.657 33.9425 922.088 34.3208 922.299L38.9782 924.9C39.824 925.373 39.5711 926.651 38.6092 926.766L33.3121 927.399C32.882 927.451 32.5338 927.773 32.4498 928.198L31.4148 933.432C31.2269 934.382 29.9327 934.537 29.5262 933.657L27.2873 928.815C27.1055 928.422 26.6911 928.19 26.261 928.242L20.9639 928.875Z" fill="white"/>
<path d="M19.513 924.346C18.6226 923.965 18.7404 922.666 19.685 922.452L24.8869 921.268C25.3093 921.172 25.6219 920.815 25.661 920.384L26.1433 915.071C26.2308 914.106 27.5018 913.817 27.998 914.649L30.7307 919.231C30.9527 919.603 31.3889 919.79 31.8114 919.693L37.0133 918.51C37.9579 918.295 38.6256 919.415 37.9877 920.144L34.4747 924.159C34.1894 924.485 34.1465 924.957 34.3684 925.33L37.1012 929.911C37.5974 930.743 36.7391 931.724 35.8486 931.343L30.9447 929.242C30.5465 929.072 30.0837 929.177 29.7984 929.503L26.2854 933.518C25.6475 934.247 24.4494 933.734 24.5369 932.769L25.0191 927.456C25.0583 927.025 24.8152 926.617 24.417 926.446L19.513 924.346Z" fill="white"/>
<circle cx="86.2975" cy="1084.57" r="9.65576" transform="rotate(-114.814 86.2975 1084.57)" fill="white"/>
<path d="M75.1115 1090.79C74.1497 1090.91 73.6026 1089.72 74.3133 1089.06L79.8852 1083.9C80.203 1083.61 80.2951 1083.14 80.1132 1082.75L76.9256 1075.85C76.519 1074.97 77.4751 1074.09 78.3209 1074.56L84.9522 1078.27C85.3304 1078.48 85.8017 1078.42 86.1195 1078.13L91.6914 1072.96C92.402 1072.31 93.5399 1072.94 93.352 1073.89L91.8785 1081.34C91.7944 1081.77 91.9936 1082.2 92.3718 1082.41L99.0032 1086.11C99.8489 1086.59 99.596 1087.86 98.6342 1087.98L91.0921 1088.88C90.662 1088.93 90.3138 1089.25 90.2298 1089.68L88.7562 1097.13C88.5683 1098.08 87.2741 1098.24 86.8676 1097.36L83.6799 1090.46C83.4981 1090.07 83.0837 1089.84 82.6536 1089.89L75.1115 1090.79Z" fill="white"/>
<path d="M73.3579 1084.75C72.4674 1084.37 72.5852 1083.07 73.5298 1082.86L80.9363 1081.17C81.3587 1081.08 81.6713 1080.72 81.7104 1080.29L82.397 1072.72C82.4846 1071.76 83.7555 1071.47 84.2517 1072.3L88.1426 1078.82C88.3646 1079.2 88.8008 1079.38 89.2233 1079.29L96.6298 1077.6C97.5744 1077.39 98.242 1078.51 97.6041 1079.24L92.6023 1084.95C92.317 1085.28 92.2741 1085.75 92.4961 1086.12L96.3869 1092.65C96.8832 1093.48 96.0249 1094.46 95.1344 1094.08L88.1522 1091.09C87.754 1090.92 87.2912 1091.02 87.0059 1091.35L82.0041 1097.07C81.3662 1097.79 80.1681 1097.28 80.2556 1096.32L80.9422 1088.75C80.9814 1088.32 80.7383 1087.91 80.34 1087.74L73.3579 1084.75Z" fill="white"/>
<circle cx="359.076" cy="862.797" r="5.09122" transform="rotate(-114.814 359.076 862.797)" fill="white"/>
<path d="M354.623 865.904C353.661 866.019 353.114 864.836 353.824 864.177L355.443 862.678C355.761 862.383 355.853 861.918 355.671 861.524L354.745 859.521C354.338 858.642 355.295 857.756 356.14 858.229L358.067 859.305C358.445 859.516 358.916 859.46 359.234 859.165L360.853 857.666C361.563 857.007 362.701 857.643 362.513 858.593L362.085 860.758C362.001 861.183 362.2 861.614 362.579 861.825L364.505 862.901C365.351 863.373 365.098 864.652 364.136 864.767L361.945 865.029C361.515 865.08 361.167 865.403 361.083 865.828L360.655 867.992C360.467 868.943 359.173 869.097 358.766 868.218L357.84 866.215C357.658 865.822 357.244 865.59 356.814 865.642L354.623 865.904Z" fill="white"/>
<path d="M353.591 863.465C352.7 863.083 352.818 861.785 353.763 861.571L355.914 861.081C356.337 860.985 356.649 860.628 356.688 860.196L356.888 857.999C356.975 857.034 358.246 856.745 358.743 857.577L359.873 859.472C360.095 859.844 360.531 860.031 360.954 859.935L363.105 859.446C364.05 859.231 364.718 860.35 364.08 861.079L362.627 862.74C362.341 863.066 362.298 863.539 362.52 863.911L363.651 865.806C364.147 866.638 363.289 867.619 362.398 867.237L360.37 866.368C359.971 866.198 359.509 866.303 359.223 866.629L357.77 868.29C357.132 869.019 355.934 868.506 356.022 867.541L356.221 865.343C356.26 864.912 356.017 864.504 355.619 864.334L353.591 863.465Z" fill="white"/>
</svg>
